<svg width="250" height="63" viewBox="0 0 250 63" fill="none" xmlns="http://www.w3.org/2000/svg">
<path fill-rule="evenodd" clip-rule="evenodd" d="M228.116 18.41C240.202 18.41 250 28.2038 250 40.2852C250 52.3665 240.202 62.1604 228.116 62.1604C216.029 62.1604 206.231 52.3665 206.231 40.2852C206.231 28.2038 216.029 18.41 228.116 18.41ZM142.608 19.396C150.787 21.7558 157.411 29.2626 158.134 37.8282C158.248 39.3808 158.557 41.5602 157.444 42.8279C156.569 43.9437 155.276 44.4043 153.883 44.3948C143.754 44.4233 133.616 44.3663 123.492 44.4233C124.091 45.9712 124.799 47.4431 125.86 48.7345C129.284 53.0363 135.252 54.8928 140.52 53.2737C142.76 52.7277 144.225 51.27 146.098 50.0973C147.439 49.6462 149.446 49.594 150.53 50.6765C152.332 52.1437 152.361 55.3629 150.592 56.8681C145.071 61.8393 137.163 63.1071 130.116 61.1414C125.503 59.8166 121.609 56.7588 118.76 52.9604C114.457 47.2341 113.677 39.0911 116.135 32.4628C117.757 28.2132 120.905 24.5287 124.676 22.0075C129.869 18.5176 136.631 17.7911 142.608 19.396ZM55.8101 19.9041C57.4174 21.5232 56.842 24.3578 56.9371 26.4422C56.9419 36.7313 56.9276 47.0347 56.9466 57.3191C56.9609 58.5394 56.7326 59.6979 55.9005 60.6333C54.393 62.4613 51.2165 62.4898 49.7043 60.6475C48.8056 59.7074 48.7533 58.5536 48.701 57.3191C48.701 46.0804 48.7153 34.8226 48.6915 23.5838C48.7105 22.2021 48.7818 20.9344 49.7899 19.8851C51.3164 18.1235 54.2884 18.1378 55.8101 19.9041ZM202.091 20.9629C202.781 22.2354 202.557 23.3702 201.992 24.6237C196.923 35.701 191.796 46.7926 186.737 57.8699C186.047 59.3181 185.519 61.0369 183.917 61.7206C182.904 62.1195 181.392 62.1052 180.379 61.6921C179.204 61.1983 178.767 60.187 178.23 59.1187C173.455 48.6728 168.624 38.246 163.826 27.8049C163.041 25.9816 161.786 24.2153 162.024 22.1499C162.047 21.0341 162.642 20.1177 163.479 19.4245C165.324 17.9241 168.562 18.4701 169.589 20.6922C173.878 29.7849 177.911 39.0057 182.253 48.0698C186.176 39.2668 190.298 30.5493 194.255 21.7606C194.726 20.7919 195.125 19.8281 196.067 19.2203C198.159 17.9051 201.093 18.6411 202.091 20.9629ZM108.07 1.88974C108.636 2.73965 108.57 3.6133 108.603 4.59141L108.579 41.6504C108.403 49.4753 103.377 56.3695 96.5199 59.8594C92.4969 61.9058 87.9366 62.3474 83.5047 61.7871C75.2686 60.7235 68.0454 54.1236 65.877 46.1801C64.8594 42.3626 64.9117 38.189 65.9008 34.3715C67.237 29.405 70.4848 25.3026 74.6124 22.3208C82.2446 16.9697 93.2388 17.4113 100.486 23.261C100.476 16.87 100.486 10.4981 100.476 4.10235C100.424 2.76339 100.966 1.59535 102.036 0.792923C103.919 -0.588776 106.825 -0.12821 108.07 1.88974ZM40.3698 21.4614C40.9832 23.3749 39.8705 25.0083 39.1286 26.6986C34.1213 37.5528 29.1426 48.4354 24.1543 59.2991C23.674 60.2724 23.2128 61.1746 22.1714 61.6494C21.0777 62.11 19.6986 62.1147 18.5764 61.7539C17.2592 61.2506 16.8074 60.1015 16.2273 58.9287C11.5434 48.7061 6.81188 38.5024 2.13271 28.275C1.4527 26.7508 0.572979 25.2409 0.121229 23.6313C-0.335276 21.8033 0.525427 19.8233 2.23257 18.9972C4.21551 18.0428 6.81188 18.7835 7.74391 20.8394C11.9476 29.8751 16.0704 38.9867 20.2598 48.0318C24.4539 39.1149 28.4911 30.122 32.6139 21.1765C33.1655 19.9468 34.0262 18.9639 35.4053 18.6885C37.5927 18.1947 39.6707 19.3533 40.3698 21.4614ZM228.116 26.6739C220.595 26.6739 214.499 32.7679 214.499 40.2852C214.499 47.8025 220.595 53.8964 228.116 53.8964C235.636 53.8964 241.733 47.8025 241.733 40.2852C241.733 32.7679 235.636 26.6739 228.116 26.6739ZM83.2337 27.2589C80.1903 28.1705 77.3039 30.1362 75.611 32.8474C73.6756 35.8245 72.8102 39.5375 73.6138 43.0321C74.3842 46.6881 76.7095 49.8978 79.8717 51.8731C83.3573 53.9907 87.756 54.4655 91.5792 52.9936C96.9812 51.0089 100.738 45.5058 100.438 39.7369C100.239 33.6071 95.4547 28.142 89.4346 27.0215C87.3708 26.6179 85.2594 26.7366 83.2337 27.2589ZM123.468 36.1996C132.156 36.2755 140.848 36.2565 149.536 36.209C147.939 31.5844 143.958 27.9901 139.132 27.0452C132.484 25.6493 125.522 29.7469 123.468 36.1996ZM56.0336 7.3643C58.1069 9.10686 58.1592 12.5635 56.1667 14.3773C54.2979 16.3525 50.9312 16.2148 49.1955 14.1304C46.894 11.6898 47.9449 7.69192 50.9692 6.42418C52.7382 5.95886 54.6641 5.99685 56.0336 7.3643Z" fill="white"/>
</svg>
